<?xml version="1.0" encoding="UTF-8" standalone="no"?>
<!-- Created with Inkscape (http://www.inkscape.org/) -->

<svg
   width="800"
   height="410"
   viewBox="0 0 800 410"
   version="1.1"
   id="svg1"
   xml:space="preserve"
   inkscape:version="1.4 (86a8ad7, 2024-10-11)"
   sodipodi:docname="splash.svg"
   inkscape:export-filename="splash.png"
   inkscape:export-xdpi="96"
   inkscape:export-ydpi="96"
   xmlns:inkscape="http://www.inkscape.org/namespaces/inkscape"
   xmlns:sodipodi="http://sodipodi.sourceforge.net/DTD/sodipodi-0.dtd"
   xmlns="http://www.w3.org/2000/svg"
   xmlns:svg="http://www.w3.org/2000/svg"><sodipodi:namedview
     id="namedview1"
     pagecolor="#ffffff"
     bordercolor="#000000"
     borderopacity="0.25"
     inkscape:showpageshadow="2"
     inkscape:pageopacity="0.0"
     inkscape:pagecheckerboard="false"
     inkscape:deskcolor="#d1d1d1"
     inkscape:document-units="mm"
     inkscape:zoom="1"
     inkscape:cx="394.5"
     inkscape:cy="265.5"
     inkscape:window-width="1920"
     inkscape:window-height="1009"
     inkscape:window-x="1912"
     inkscape:window-y="-8"
     inkscape:window-maximized="1"
     inkscape:current-layer="layer1" /><defs
     id="defs1"><linearGradient
       id="linearGradient5344"
       y2="61.618"
       gradientUnits="userSpaceOnUse"
       x2="26.5"
       gradientTransform="matrix(-7.2289,-5.8075,-4.0773,5.0752,718.56,349.71)"
       y1="51.299999"
       x1="26.5"
       inkscape:collect="always"><stop
         id="stop2310"
         style="stop-color:#41a9ff"
         offset="0" /><stop
         id="stop2312"
         style="stop-color:#41a9ff;stop-opacity:0"
         offset="1" /></linearGradient><linearGradient
       id="linearGradient5348"
       y2="14.088"
       gradientUnits="userSpaceOnUse"
       x2="2.7053001"
       gradientTransform="matrix(4.7783,-5.9478,8.4718,6.806,164.19,356.13)"
       y1="12.175"
       x1="16.902"
       inkscape:collect="always"><stop
         id="stop2189"
         style="stop-color:#ffffff"
         offset="0" /><stop
         id="stop2191"
         style="stop-color:#ffffff;stop-opacity:0"
         offset="1" /></linearGradient><radialGradient
       id="radialGradient5350"
       gradientUnits="userSpaceOnUse"
       cy="28.497999"
       cx="456.51999"
       gradientTransform="matrix(3.2348,0.32925,-0.040219,0.39514,-1057.4,94.409)"
       r="168.07001"
       inkscape:collect="always"><stop
         id="stop2328"
         style="stop-color:#ffffff"
         offset="0" /><stop
         id="stop2330"
         style="stop-color:#ffffff;stop-opacity:0"
         offset="1" /></radialGradient><filter
       style="color-interpolation-filters:sRGB"
       inkscape:label="Color Shift"
       id="filter234"
       x="0"
       y="0"
       width="1"
       height="1"><feColorMatrix
         type="hueRotate"
         values="259"
         result="color1"
         id="feColorMatrix233" /><feColorMatrix
         type="saturate"
         values="0.6"
         result="color2"
         id="feColorMatrix234" /></filter><filter
       style="color-interpolation-filters:sRGB"
       inkscape:label="Color Shift"
       id="filter236"
       x="0"
       y="0"
       width="1"
       height="1"><feColorMatrix
         type="hueRotate"
         values="259"
         result="color1"
         id="feColorMatrix235" /><feColorMatrix
         type="saturate"
         values="0.6"
         result="color2"
         id="feColorMatrix236" /></filter><filter
       style="color-interpolation-filters:sRGB"
       inkscape:label="Color Shift"
       id="filter238"
       x="0"
       y="0"
       width="1"
       height="1"><feColorMatrix
         type="hueRotate"
         values="259"
         result="color1"
         id="feColorMatrix237" /><feColorMatrix
         type="saturate"
         values="0.6"
         result="color2"
         id="feColorMatrix238" /></filter><filter
       style="color-interpolation-filters:sRGB"
       inkscape:label="Color Shift"
       id="filter240"
       x="0"
       y="0"
       width="1"
       height="1"><feColorMatrix
         type="hueRotate"
         values="259"
         result="color1"
         id="feColorMatrix239" /><feColorMatrix
         type="saturate"
         values="0.6"
         result="color2"
         id="feColorMatrix240" /></filter><filter
       style="color-interpolation-filters:sRGB"
       inkscape:label="Color Shift"
       id="filter242"
       x="0"
       y="0"
       width="1"
       height="1"><feColorMatrix
         type="hueRotate"
         values="259"
         result="color1"
         id="feColorMatrix241" /><feColorMatrix
         type="saturate"
         values="0.6"
         result="color2"
         id="feColorMatrix242" /></filter><filter
       style="color-interpolation-filters:sRGB"
       inkscape:label="Color Shift"
       id="filter244"
       x="0"
       y="0"
       width="1"
       height="1"><feColorMatrix
         type="hueRotate"
         values="259"
         result="color1"
         id="feColorMatrix243" /><feColorMatrix
         type="saturate"
         values="0.6"
         result="color2"
         id="feColorMatrix244" /></filter><filter
       style="color-interpolation-filters:sRGB"
       inkscape:label="Color Shift"
       id="filter234-4"
       x="0"
       y="0"
       width="1"
       height="1"><feColorMatrix
         type="hueRotate"
         values="259"
         result="color1"
         id="feColorMatrix233-5" /><feColorMatrix
         type="saturate"
         values="0.6"
         result="color2"
         id="feColorMatrix234-5" /></filter><filter
       style="color-interpolation-filters:sRGB"
       inkscape:label="Color Shift"
       id="filter236-1"
       x="0"
       y="0"
       width="1"
       height="1"><feColorMatrix
         type="hueRotate"
         values="259"
         result="color1"
         id="feColorMatrix235-7" /><feColorMatrix
         type="saturate"
         values="0.6"
         result="color2"
         id="feColorMatrix236-1" /></filter><filter
       style="color-interpolation-filters:sRGB"
       inkscape:label="Color Shift"
       id="filter238-1"
       x="0"
       y="0"
       width="1"
       height="1"><feColorMatrix
         type="hueRotate"
         values="259"
         result="color1"
         id="feColorMatrix237-5" /><feColorMatrix
         type="saturate"
         values="0.6"
         result="color2"
         id="feColorMatrix238-2" /></filter><filter
       style="color-interpolation-filters:sRGB"
       inkscape:label="Color Shift"
       id="filter240-7"
       x="0"
       y="0"
       width="1"
       height="1"><feColorMatrix
         type="hueRotate"
         values="259"
         result="color1"
         id="feColorMatrix239-6" /><feColorMatrix
         type="saturate"
         values="0.6"
         result="color2"
         id="feColorMatrix240-1" /></filter><filter
       style="color-interpolation-filters:sRGB"
       inkscape:label="Color Shift"
       id="filter242-4"
       x="0"
       y="0"
       width="1"
       height="1"><feColorMatrix
         type="hueRotate"
         values="259"
         result="color1"
         id="feColorMatrix241-2" /><feColorMatrix
         type="saturate"
         values="0.6"
         result="color2"
         id="feColorMatrix242-3" /></filter><filter
       style="color-interpolation-filters:sRGB"
       inkscape:label="Color Shift"
       id="filter244-2"
       x="0"
       y="0"
       width="1"
       height="1"><feColorMatrix
         type="hueRotate"
         values="259"
         result="color1"
         id="feColorMatrix243-2" /><feColorMatrix
         type="saturate"
         values="0.6"
         result="color2"
         id="feColorMatrix244-1" /></filter></defs><g
     inkscape:label="Calque 1"
     inkscape:groupmode="layer"
     id="layer1"
     transform="translate(-2.3576733,-14.408003)"><text
       xml:space="preserve"
       style="font-size:18.5697px;text-align:start;writing-mode:lr-tb;direction:ltr;text-anchor:start;fill:#4f4f4f;fill-opacity:1;stroke:none;stroke-width:0.551112;stroke-dasharray:none;stroke-opacity:1"
       x="66.70295"
       y="416.00635"
       id="text1"><tspan
         sodipodi:role="line"
         id="tspan1"
         style="font-style:normal;font-variant:normal;font-weight:bold;font-stretch:normal;font-family:Consolas;-inkscape-font-specification:'Consolas Bold';fill:#4f4f4f;fill-opacity:1;stroke:none;stroke-width:0.551112;stroke-dasharray:none;stroke-opacity:1"
         x="66.70295"
         y="416.00635">DS45467.JPG</tspan></text><text
       xml:space="preserve"
       style="font-style:normal;font-variant:normal;font-weight:bold;font-stretch:normal;font-size:18.5697px;font-family:Consolas;-inkscape-font-specification:'Consolas Bold';text-align:start;writing-mode:lr-tb;direction:ltr;text-anchor:start;fill:#4f4f4f;fill-opacity:1;stroke:#4e4e4e;stroke-width:1.54747;stroke-opacity:1"
       x="564.33398"
       y="414.25186"
       id="text1-4"><tspan
         sodipodi:role="line"
         id="tspan1-1"
         style="font-style:normal;font-variant:normal;font-weight:bold;font-stretch:normal;font-family:Consolas;-inkscape-font-specification:'Consolas Bold';fill:#4f4f4f;fill-opacity:1;stroke:none;stroke-width:1.54747;stroke-opacity:1"
         x="564.33398"
         y="414.25186">2024_10_06-10:02:12.JPG</tspan></text><g
       id="g5339"
       transform="matrix(0.88342697,0.0815716,-0.12401821,0.58106397,97.893449,-23.619927)"><path
         id="path1432"
         inkscape:connector-curvature="0"
         sodipodi:nodetypes="ccccccc"
         style="color:#000000;display:block;fill:url(#linearGradient5344);stroke:url(#linearGradient5344);stroke-width:7.7696"
         d="M 210.34,461.54 C 174.1,294.35 366.42,171.61 505.23,282.69 l 38.226,-47.582 60.877,170.72 -182.72,-19.048 39.421,-49.069 c -99.272,-84.646 -231.15,-14.447 -250.69,123.83 z" /><path
         id="path2177"
         sodipodi:nodetypes="ccccccc"
         style="color:#000000;display:block;opacity:0.69886;fill:none;stroke:url(#linearGradient5348);stroke-width:7.7696;stroke-miterlimit:10"
         inkscape:connector-curvature="0"
         d="M 210.97,429.6 C 203.05,279.73 381.68,188.36 508.27,293.92 l 33.022,-41.105 51.547,143.82 -154.33,-15.889 33.75,-42.011 c -99.722,-89.177 -221.83,-32.556 -261.29,90.864 z" /><path
         id="path9796"
         d="m 542.61,244.98 -4.3474,5.4048 -30.637,38.157 c -63.97,-51.07 -137.55,-55.83 -204.77,-24.02 -42.237,19.986 -68.639,61.563 -68.639,61.563 138.43,-132.94 204.77,26.088 333.85,-10.057 z"
         sodipodi:nodetypes="cccsccc"
         style="color:#000000;text-indent:0;text-transform:none;display:block;opacity:0.69886;fill:url(#radialGradient5350)"
         inkscape:connector-curvature="0" /></g><g
       id="g3"
       transform="matrix(4.165876,0,0,4.165876,-22.803945,-74.502799)"><rect
         x="-110.10623"
         y="19.796917"
         width="30.497675"
         height="30.323406"
         fill="#ffffff"
         id="rect2"
         style="isolation:isolate;stroke-width:0.0842235"
         transform="rotate(-90)" /><path
         d="M 20.319673,80.044265 H 49.597478 V 109.67053 H 20.319673 Z M 19.27407,79.172929 V 110.54194 H 50.643081 V 79.172929 Z"
         fill="#788b9c"
         id="path2"
         style="isolation:isolate;stroke-width:0.0842235" /><rect
         x="-107.05644"
         y="23.456573"
         width="24.398094"
         height="19.717545"
         fill="#b5deff"
         id="rect3"
         style="isolation:isolate;stroke-width:0.0842235"
         transform="rotate(-90)" /><rect
         x="49.333"
         y="189.58299"
         width="317.33301"
         height="109.083"
         fill="#99c9f0"
         id="rect4"
         style="isolation:isolate;filter:url(#filter234)"
         transform="matrix(0,-0.07688483,0.0922618,0,18.905023,110.8494)" /><path
         d="m 30.645336,83.878281 c 0,0.401646 0.232131,0.75547 0.585586,0.977667 -0.362866,0.408643 -0.585586,0.910547 -0.585586,1.462119 0,0.551572 0.22272,1.053476 0.585586,1.462119 -0.335648,0.209281 -0.547758,0.528199 -0.582726,0.876333 -0.03506,0.348058 0.11053,0.691964 0.399679,0.944838 -0.966258,0.450391 -1.378299,1.430212 -0.960907,2.28471 -0.563627,0.461616 -0.880639,1.092841 -0.879347,1.751436 -0.0037,1.028027 0.769279,1.946724 1.930209,2.29432 -0.322178,0.404645 -0.493601,0.879717 -0.492494,1.365398 0,0.506287 0.181941,0.975899 0.492494,1.365398 -1.16093,0.347596 -1.9339,1.266293 -1.930209,2.294321 0,0.68835 0.338785,1.30789 0.879347,1.75144 -0.417946,0.85449 -0.0057,1.83454 0.960907,2.2847 -0.258426,0.22805 -0.402446,0.52982 -0.402539,0.84351 0,0.67351 0.64408,1.21985 1.437716,1.21985 H 40.70953 V 82.658349 h -8.626478 c -0.793636,0 -1.437716,0.546344 -1.437716,1.219932 z"
         fill="#d9f6ff"
         id="path4"
         style="isolation:isolate;stroke-width:0.0842235" /><path
         d="M 53.141,242 H 366.666 V 223.81 L 268.689,169.229 Z"
         fill="#6e9ee0"
         id="path5"
         style="isolation:isolate;filter:url(#filter236)"
         transform="matrix(0,-0.07688483,0.0922618,0,18.905023,110.8494)" /><path
         d="m 275.433,242 h -226.1 v -33.082 l 106.85,-46.251 z"
         fill="#77a9ed"
         id="path6"
         style="isolation:isolate;filter:url(#filter238)"
         transform="matrix(0,-0.07688483,0.0922618,0,18.905023,110.8494)" /><path
         d="m 179.156,255.396 4.454,77.271 h 112.483 l -60.724,-77.271 z"
         fill="#c5d4de"
         id="path7"
         style="isolation:isolate;filter:url(#filter240)"
         transform="matrix(0,-0.07688483,0.0922618,0,18.905023,110.8494)" /><path
         d="m 177.977,236.843 3.57,61.824 h 89.976 l -48.586,-61.824 z"
         fill="#7fa6c7"
         id="path8"
         style="isolation:isolate;filter:url(#filter242)"
         transform="matrix(0,-0.07688483,0.0922618,0,18.905023,110.8494)" /><path
         d="m 178.227,242 h 49.492 l -52.269,-66.515 -1.122,-0.748 z"
         fill="#6089bf"
         id="path9"
         style="isolation:isolate;filter:url(#filter244)"
         transform="matrix(0,-0.07688483,0.0922618,0,18.905023,110.8494)" /><ellipse
         style="isolation:isolate;fill:#ffcc00;fill-opacity:1;stroke:none;stroke-width:0.149418;stroke-opacity:1"
         id="path244"
         cx="-101.82832"
         cy="27.987682"
         rx="3.3364172"
         ry="3.3364396"
         transform="rotate(-90)" /></g><g
       id="g4"
       transform="matrix(4.165876,0,0,4.165876,-22.803945,-74.502799)"><rect
         x="153.90894"
         y="79.695778"
         width="30.497675"
         height="30.323406"
         fill="#ffffff"
         id="rect2-7"
         style="isolation:isolate;stroke-width:0.0842235" /><path
         d="m 183.9709,80.21853 v 29.2778 h -29.62626 v -29.2778 z m 0.87134,-1.045603 h -31.36901 v 31.369013 h 31.36901 z"
         fill="#788b9c"
         id="path2-6"
         style="isolation:isolate;stroke-width:0.0842235" /><rect
         x="156.95872"
         y="83.355431"
         width="24.398094"
         height="19.717545"
         fill="#b5deff"
         id="rect3-1"
         style="isolation:isolate;stroke-width:0.0842235" /><rect
         x="49.333"
         y="189.58299"
         width="317.33301"
         height="109.083"
         fill="#99c9f0"
         id="rect4-8"
         style="isolation:isolate;filter:url(#filter234-4)"
         transform="matrix(0.07688483,0,0,0.0922618,153.16577,78.80388)" /><path
         d="m 180.13689,90.544193 c -0.40165,0 -0.75547,0.232131 -0.97767,0.585586 -0.40864,-0.362866 -0.91055,-0.585586 -1.46212,-0.585586 -0.55157,0 -1.05347,0.22272 -1.46212,0.585586 -0.20928,-0.335648 -0.52819,-0.547758 -0.87633,-0.582726 -0.34806,-0.03506 -0.69196,0.11053 -0.94484,0.399679 -0.45039,-0.966258 -1.43021,-1.378299 -2.28471,-0.960907 -0.46161,-0.563627 -1.09284,-0.880639 -1.75143,-0.879347 -1.02803,-0.0037 -1.94673,0.769279 -2.29432,1.930209 -0.40465,-0.322178 -0.87972,-0.493601 -1.3654,-0.492494 -0.50629,0 -0.9759,0.181941 -1.3654,0.492494 -0.3476,-1.16093 -1.26629,-1.9339 -2.29432,-1.930209 -0.68835,0 -1.30789,0.338785 -1.75144,0.879347 -0.85449,-0.417946 -1.83454,-0.0057 -2.2847,0.960907 -0.22805,-0.258426 -0.52982,-0.402446 -0.84351,-0.402539 -0.67351,0 -1.21985,0.64408 -1.21985,1.437716 v 8.626481 h 24.39809 v -8.626481 c 0,-0.793636 -0.54634,-1.437716 -1.21993,-1.437716 z"
         fill="#d9f6ff"
         id="path4-9"
         style="isolation:isolate;stroke-width:0.0842235" /><path
         d="M 53.141,242 H 366.666 V 223.81 L 268.689,169.229 Z"
         fill="#6e9ee0"
         id="path5-2"
         style="isolation:isolate;filter:url(#filter236-1)"
         transform="matrix(0.07688483,0,0,0.0922618,153.16577,78.80388)" /><path
         d="m 275.433,242 h -226.1 v -33.082 l 106.85,-46.251 z"
         fill="#77a9ed"
         id="path6-7"
         style="isolation:isolate;filter:url(#filter238-1)"
         transform="matrix(0.07688483,0,0,0.0922618,153.16577,78.80388)" /><path
         d="m 179.156,255.396 4.454,77.271 h 112.483 l -60.724,-77.271 z"
         fill="#c5d4de"
         id="path7-9"
         style="isolation:isolate;filter:url(#filter240-7)"
         transform="matrix(0.07688483,0,0,0.0922618,153.16577,78.80388)" /><path
         d="m 177.977,236.843 3.57,61.824 h 89.976 l -48.586,-61.824 z"
         fill="#7fa6c7"
         id="path8-5"
         style="isolation:isolate;filter:url(#filter242-4)"
         transform="matrix(0.07688483,0,0,0.0922618,153.16577,78.80388)" /><path
         d="m 178.227,242 h 49.492 l -52.269,-66.515 -1.122,-0.748 z"
         fill="#6089bf"
         id="path9-4"
         style="isolation:isolate;filter:url(#filter244-2)"
         transform="matrix(0.07688483,0,0,0.0922618,153.16577,78.80388)" /><ellipse
         style="isolation:isolate;fill:#ffcc00;fill-opacity:1;stroke:none;stroke-width:0.149418;stroke-opacity:1"
         id="path244-3"
         cx="162.18684"
         cy="87.886543"
         rx="3.3364172"
         ry="3.3364396" /></g><text
       xml:space="preserve"
       style="font-style:normal;font-variant:normal;font-weight:bold;font-stretch:normal;font-size:72.7296px;font-family:'Berlin Sans FB Demi';-inkscape-font-specification:'Berlin Sans FB Demi Bold';text-align:start;writing-mode:lr-tb;direction:ltr;text-anchor:start;fill:#000000;fill-opacity:1;stroke:none;stroke-width:0;stroke-dasharray:none;stroke-opacity:1"
       x="276.20825"
       y="67.87455"
       id="text2"
       transform="scale(0.87992639,1.1364587)"><tspan
         sodipodi:role="line"
         id="tspan2"
         style="font-style:normal;font-variant:normal;font-weight:bold;font-stretch:normal;font-family:'Berlin Sans FB Demi';-inkscape-font-specification:'Berlin Sans FB Demi Bold';fill:#000000;fill-opacity:1;stroke:none;stroke-width:0;stroke-dasharray:none;stroke-opacity:1"
         x="276.20825"
         y="67.87455">Photos Norm</tspan></text></g></svg>
